<svg xmlns="http://www.w3.org/2000/svg" width="26.19" height="26.19" viewBox="0 0 26.19 26.19">
  <defs>
    <style>
      .cls-1 {
        fill: #fff;
        fill-rule: evenodd;
      }
    </style>
  </defs>
  <path id="Dribble" class="cls-1" d="M1383.42,6866.46a13.214,13.214,0,0,0-.76-2.46,14.106,14.106,0,0,0-1.21-2.23,13.307,13.307,0,0,0-3.54-3.53,12.929,12.929,0,0,0-2.22-1.21,13.083,13.083,0,0,0-2.47-.76,12.993,12.993,0,0,0-5.27,0,13.214,13.214,0,0,0-2.46.76,12.654,12.654,0,0,0-2.23,1.21,13.408,13.408,0,0,0-1.94,1.6,13.142,13.142,0,0,0-2.8,4.16,13.244,13.244,0,0,0-.77,2.46,13.66,13.66,0,0,0-.26,2.64,13.481,13.481,0,0,0,.26,2.63,13.342,13.342,0,0,0,.77,2.47,12.929,12.929,0,0,0,1.21,2.22,12.349,12.349,0,0,0,1.59,1.94,14.1,14.1,0,0,0,1.94,1.6,12.962,12.962,0,0,0,4.69,1.97,12.993,12.993,0,0,0,5.27,0,13.083,13.083,0,0,0,2.47-.76,13.651,13.651,0,0,0,2.22-1.21,14.1,14.1,0,0,0,1.94-1.6,13,13,0,0,0,1.6-1.94,14.46,14.46,0,0,0,1.21-2.22,13.312,13.312,0,0,0,.76-2.47,12.752,12.752,0,0,0,.26-2.63A12.917,12.917,0,0,0,1383.42,6866.46Zm-1.65,2.52a26.321,26.321,0,0,0-7.79-.36c-0.08-.19-0.16-0.39-0.24-0.58-0.24-.54-0.49-1.09-0.75-1.62a14.467,14.467,0,0,0,6.24-4.43A11.219,11.219,0,0,1,1381.77,6868.98Zm-3.79-8.28c-0.03.05-1.63,2.47-5.85,4.05a56.1,56.1,0,0,0-4.18-6.52,10.968,10.968,0,0,1,2.64-.32A11.2,11.2,0,0,1,1377.98,6860.7Zm-10.07-2.46h0Zm-2.09.74a71.255,71.255,0,0,1,4.15,6.45,41.314,41.314,0,0,1-10.33,1.36A11.212,11.212,0,0,1,1365.82,6858.98Zm-6.42,10.12c0-.12,0-0.24.01-0.36a40.778,40.778,0,0,0,11.48-1.59c0.32,0.63.63,1.27,0.91,1.9-0.15.04-.29,0.09-0.44,0.13a17.677,17.677,0,0,0-9.1,7.39h0.01A11.145,11.145,0,0,1,1359.4,6869.1Zm11.19,11.19a11.168,11.168,0,0,1-7.13-2.57l0.25,0.2s2.15-4.68,8.78-6.99a0.254,0.254,0,0,1,.07-0.02,45.3,45.3,0,0,1,2.39,8.49A11.1,11.1,0,0,1,1370.59,6880.29Zm6.25-1.92a49,49,0,0,0-2.18-7.98,16.075,16.075,0,0,1,6.97.49A11.178,11.178,0,0,1,1376.84,6878.37Z" transform="translate(-1357.5 -6856)"/>
</svg>
