<svg xmlns="http://www.w3.org/2000/svg" width="26.09" height="21.22" viewBox="0 0 26.09 21.22">
  <defs>
    <style>
      .cls-1 {
        fill: #fff;
        fill-rule: evenodd;
      }
    </style>
  </defs>
  <path id="Twitter" class="cls-1" d="M1312.61,6861.76a10.969,10.969,0,0,1-3.08.84,5.349,5.349,0,0,0,2.36-2.96,10.946,10.946,0,0,1-3.4,1.3,5.362,5.362,0,0,0-9.27,3.66,5.431,5.431,0,0,0,.14,1.22,15.19,15.19,0,0,1-11.04-5.59,5.374,5.374,0,0,0,1.66,7.15,5.414,5.414,0,0,1-2.43-.67v0.07a5.371,5.371,0,0,0,4.3,5.25,5.449,5.449,0,0,1-1.41.18,5.58,5.58,0,0,1-1.01-.09,5.379,5.379,0,0,0,5,3.72,10.721,10.721,0,0,1-7.93,2.21,15.228,15.228,0,0,0,23.45-12.83c0-.23-0.01-0.46-0.02-0.69A11.023,11.023,0,0,0,1312.61,6861.76Z" transform="translate(-1286.5 -6859.25)"/>
</svg>
