<svg xmlns="http://www.w3.org/2000/svg" width="26" height="25.44" viewBox="0 0 26 25.44">
  <defs>
    <style>
      .cls-1 {
        fill: #fff;
        fill-rule: evenodd;
      }
    </style>
  </defs>
  <path id="Youtube" class="cls-1" d="M1530.25,6866.4h-16.5a4.739,4.739,0,0,0-4.74,4.75v3.81a4.746,4.746,0,0,0,4.74,4.75h16.5a4.746,4.746,0,0,0,4.74-4.75v-3.81A4.739,4.739,0,0,0,1530.25,6866.4Zm-13.03,2.97h-1.53v7.62h-1.48v-7.62h-1.54v-1.3h4.55v1.3Zm4.33,7.62h-1.31v-0.72a2.9,2.9,0,0,1-.76.6,1.544,1.544,0,0,1-.77.21,0.793,0.793,0,0,1-.68-0.29,1.38,1.38,0,0,1-.23-0.88v-5.5h1.31v5.05a0.571,0.571,0,0,0,.08.33,0.339,0.339,0,0,0,.27.11,0.78,0.78,0,0,0,.37-0.14,1.7,1.7,0,0,0,.41-0.35v-5h1.31v6.58Zm4.77-1.36a1.625,1.625,0,0,1-.31,1.07,1.073,1.073,0,0,1-.89.37,1.521,1.521,0,0,1-.69-0.14,1.793,1.793,0,0,1-.56-0.45v0.51h-1.33v-8.92h1.33v2.87a1.793,1.793,0,0,1,.56-0.45,1.237,1.237,0,0,1,.61-0.16,1.141,1.141,0,0,1,.95.42,1.96,1.96,0,0,1,.33,1.23v3.65Zm4.56-1.77h-2.51v1.24a1.554,1.554,0,0,0,.12.72,0.511,0.511,0,0,0,.45.2,0.561,0.561,0,0,0,.46-0.17,1.477,1.477,0,0,0,.13-0.75v-0.3h1.35v0.34a2.065,2.065,0,0,1-.5,1.52,1.926,1.926,0,0,1-1.47.5,1.78,1.78,0,0,1-1.39-.54,2.047,2.047,0,0,1-.51-1.48v-2.96a1.838,1.838,0,0,1,.56-1.39,1.978,1.978,0,0,1,1.44-.54,1.837,1.837,0,0,1,1.39.5,1.978,1.978,0,0,1,.48,1.43v1.68Zm-1.93-2.46a0.526,0.526,0,0,0-.45.18,0.97,0.97,0,0,0-.13.59v0.66h1.16v-0.66a0.961,0.961,0,0,0-.14-0.59A0.518,0.518,0,0,0,1528.95,6871.4Zm-4.53-.03a0.581,0.581,0,0,0-.28.07,0.94,0.94,0,0,0-.27.2v4.1a1.176,1.176,0,0,0,.31.23,0.711,0.711,0,0,0,.32.07,0.419,0.419,0,0,0,.35-0.13,0.723,0.723,0,0,0,.12-0.46v-3.4a0.784,0.784,0,0,0-.14-0.5A0.5,0.5,0,0,0,1524.42,6871.37Zm-8.51-7.26h1.67v-4.07l1.94-5.75h-1.69l-1.03,3.93h-0.11l-1.08-3.93h-1.68l1.98,5.93v3.89Zm5.87,0.19a2.252,2.252,0,0,0,1.58-.53,1.877,1.877,0,0,0,.58-1.46v-3.74a1.757,1.757,0,0,0-.59-1.36,2.172,2.172,0,0,0-1.51-.53,2.431,2.431,0,0,0-1.6.5,1.65,1.65,0,0,0-.6,1.34v3.76a1.914,1.914,0,0,0,.58,1.47A2.215,2.215,0,0,0,1521.78,6864.3Zm-0.62-5.83a0.486,0.486,0,0,1,.17-0.38,0.652,0.652,0,0,1,.44-0.15,0.726,0.726,0,0,1,.48.15,0.465,0.465,0,0,1,.18.38v3.95a0.618,0.618,0,0,1-.18.46,0.68,0.68,0,0,1-.48.16,0.59,0.59,0,0,1-.45-0.16,0.657,0.657,0,0,1-.16-0.46v-3.95Zm5.01,5.75a1.912,1.912,0,0,0,.86-0.23,3.1,3.1,0,0,0,.85-0.68v0.8h1.48v-7.24h-1.48v5.5a1.872,1.872,0,0,1-.46.39,0.827,0.827,0,0,1-.41.15,0.351,0.351,0,0,1-.3-0.12,0.585,0.585,0,0,1-.1-0.37v-5.55h-1.47v6.05a1.519,1.519,0,0,0,.26.97A0.917,0.917,0,0,0,1526.17,6864.22Z" transform="translate(-1509 -6854.28)"/>
</svg>
